# xmcd
#
# Track frame offsets:
#	150
#	17234
#	45896
#	62499
#	85955
#	105765
#	128138
#	146568
#	165810
#	185412
#	204270
#	216799
#	230098
#	246661
#	261631
#	274314
#
# Disc length: 3941 seconds
#
# Revision: 0
# Processed by: cddbd v1.5.2PL0 Copyright (c) Steve Scherf et al.
# Submitted via: audiograbber 1.83.01
#
DISCID=e00f6310
DTITLE=Διάφοροι - 48 Αδέσποτα ρεμπέτικα 3
DYEAR=1900
DGENRE=Ρεμπέτικα
TTITLE0=Γιάννης Λεμπέσης - Με τα ρούχα μου μαλώνω
TTITLE1=Γιάννης Λεμπέσης - Στό 'πα και στο ξαναλέω
TTITLE2=Γιάννης Λεμπέσης - Τη δόλια τη μανούλα μου
TTITLE3=Γιάννης Λεμπέσης - Είμαι μεμέτης μερακλής
TTITLE4=Γιάννης Λεμπέσης - Μαριωρή βρε Μαριωρή
TTITLE5=Γιάννης Λεμπέσης - Μπουρνοβαλιός Μανές
TTITLE6=Γιάννης Λεμπέσης - Βάρα με με το στιλέτο
TTITLE7=Ασημένια - Τα παιδιά της γειτονιάς σου
TTITLE8=Γιάννης Λεμπέσης - Ζεϊμπέκικο Μινόρε
TTITLE9=Γιάννης Λεμπέσης - Δε μου λέτε
TTITLE10=Ασημένια - Τι σε μέλει εσένανε
TTITLE11=Γιώργος Ζορμπάς - Πολίτικο ζειμπέκικο
TTITLE12=Ορχηστρικό - Πολίτικο χασάπικο
TTITLE13=Γιώργος Ζορμπάς - Κάηκε κι ενα σχολείο
TTITLE14=Ασημένια - Η αγάπη θέλει χάδι
TTITLE15=Νίκος Καρατάσος - Παραδοσιακές διαδρομές
EXTD=astos
EXTT0=
EXTT1=
EXTT2=
EXTT3=
EXTT4=
EXTT5=
EXTT6=
EXTT7=
EXTT8=
EXTT9=
EXTT10=
EXTT11=
EXTT12=
EXTT13=
EXTT14=
EXTT15=
PLAYORDER=
